:FULLY-SPECIFIED
:FORCE-ALL-JOINTS-BE-3DOF
:DEGREES
203
root 0.02027 17.0752 10.2065 4.03407 19.5517 2.92055
lfemur 0.111512 -4.43358 -24.4395
ltibia 30.6231 0 0
lfoot -2.52882 -5.23877 -0.317307
ltoes -15.7775 0 0
rfemur -20.8784 1.9592 20.0953
rtibia 24.116 0 0
rfoot -5.64921 -3.19034 0.204269
rtoes -2.67969 0 0
lowerback 6.84401 -1.60596 -4.36144
upperback -0.0236813 -2.41724 2.50065
thorax -3.2791 -1.11451 5.30273
lowerneck -15.3765 -3.22502 -9.5814
upperneck 23.2416 -2.81638 3.4227
head 10.1641 -1.73135 2.44731
lclavicle -4.74598e-15 -2.62396e-15 -1.00766e-30
lhumerus -30.406 6.43004 85.1488
lradius 37.6908 0 0
lwrist -4.63064 0 0
lhand -14.4748 27.2632 0.00642031
lfingers 7.12502 0 0
lthumb 11.6706 56.9052 0.00353178
rclavicle -4.74598e-15 -2.62396e-15 -1.00766e-30
rhumerus -37.8477 -18.6697 -73.8326
rradius 27.2282 0 0
rwrist 9.52575 0 0
rhand -16.7639 12.3121 -0.00192173
rfingers 7.12502 0 0
rthumb 9.46317 -17.4547 -0.00174143
204
root 0.079584 17.0899 10.4323 3.5591 19.4204 1.96713
lfemur -0.745502 -4.83575 -23.1058
ltibia 31.5266 0 0
lfoot 0.00743126 -5.64191 -0.480163
ltoes -14.9534 0 0
rfemur -20.0755 2.85505 21.2419
rtibia 24.5173 0 0
rfoot -5.38985 -4.72632 0.150319
rtoes -2.27818 0 0
lowerback 6.66795 -1.52638 -3.62726
upperback -0.0385708 -2.23703 2.7513
thorax -3.23654 -1.03702 5.13229
lowerneck -15.6266 -3.26643 -9.50402
upperneck 23.5139 -2.86268 3.40675
head 10.3126 -1.74997 2.42505
lclavicle 7.03946e-14 -3.10103e-15 3.58436e-32
lhumerus -30.5772 6.95724 84.8337
lradius 37.197 0 0
lwrist -4.69901 0 0
lhand -14.1408 26.147 0.0184667
lfingers 7.12502 0 0
lthumb 11.9928 55.7726 0.0155479
rclavicle 7.03946e-14 -3.10103e-15 3.58436e-32
rhumerus -37.9931 -19.2757 -73.4186
rradius 27.2033 0 0
rwrist 9.7465 0 0
rhand -16.9073 12.3387 -0.00217447
rfingers 7.12502 0 0
rthumb 9.32476 -17.4344 -0.00198388
205
root 0.139055 17.0972 10.6443 3.17749 19.1212 1.32405
lfemur -1.72523 -5.26803 -22.1693
ltibia 32.7551 0 0
lfoot 2.34489 -5.38023 -0.68406
ltoes -12.9659 0 0
rfemur -19.1695 3.75867 22.025
rtibia 24.7961 0 0
rfoot -5.04414 -5.59724 0.111269
rtoes -1.53051 0 0
lowerback 6.64467 -1.40046 -3.03395
upperback -0.130468 -2.01384 2.92206
thorax -3.38005 -0.928934 4.96342
lowerneck -15.7185 -3.28533 -9.49966
upperneck 23.7522 -2.85899 3.33331
head 10.4171 -1.75976 2.40165
lclavicle -2.5847e-14 -1.28812e-14 -1.72362e-32
lhumerus -30.8486 7.67001 84.5779
lradius 36.5956 0 0
lwrist -5.15833 0 0
lhand -14.1364 25.8341 0.0173988
lfingers 7.12502 0 0
lthumb 11.9971 55.4607 0.0147807
rclavicle -2.5847e-14 -1.28812e-14 -1.72362e-32
rhumerus -38.268 -19.6046 -72.975
rradius 27.2593 0 0
rwrist 10.0755 0 0
rhand -17.1537 12.2143 -0.00309643
rfingers 7.12502 0 0
rthumb 9.08705 -17.5693 -0.00288974
206
root 0.1977 17.1085 10.8488 2.76829 18.7593 0.736167
lfemur -2.66753 -5.30088 -21.308
ltibia 34.1069 0 0
lfoot 4.52627 -5.31318 -0.923205
ltoes -11.6299 0 0
rfemur -18.3533 4.4733 22.8579
rtibia 25.1066 0 0
rfoot -4.67886 -5.22828 0.128116
rtoes -0.00797343 0 0
lowerback 6.69207 -1.26141 -2.37752
upperback -0.178366 -1.76807 3.08878
thorax -3.53439 -0.81184 4.75737
lowerneck -15.7367 -3.2824 -9.70292
upperneck 23.7934 -2.8292 3.45611
head 10.4411 -1.75063 2.48407
lclavicle 2.83716e-14 -3.33957e-15 -1.88266e-30
lhumerus -31.0842 8.58423 84.3402
lradius 35.9858 0 0
lwrist -5.96143 0 0
lhand -13.9268 25.5198 0.0165368
lfingers 7.12502 0 0
lthumb 12.1991 55.1345 0.0139216
rclavicle 2.83716e-14 -3.33957e-15 -1.88266e-30
rhumerus -38.4159 -19.8796 -72.5278
rradius 27.2341 0 0
rwrist 10.4009 0 0
rhand -17.0715 12.1678 -0.00184135
rfingers 7.12502 0 0
rthumb 9.16629 -17.6128 -0.00174999
207
root 0.253821 17.1282 11.0582 2.31581 18.4115 0.0894693
lfemur -3.67496 -5.35548 -20.2908
ltibia 35.5137 0 0
lfoot 6.42822 -6.00664 -1.22962
ltoes -10.5681 0 0
rfemur -17.5073 4.76205 23.8772
rtibia 25.3565 0 0
rfoot -4.43716 -4.20703 0.172228
rtoes 1.19688 0 0
lowerback 6.64381 -1.03928 -1.65422
upperback -0.0843753 -1.40883 3.16731
thorax -3.47788 -0.64727 4.40113
lowerneck -15.8866 -3.41399 -9.73972
upperneck 23.8014 -3.05006 3.69023
head 10.4915 -1.8266 2.54266
lclavicle -2.91965e-14 8.74637e-16 -7.63622e-31
lhumerus -30.9924 9.15194 84.1282
lradius 35.3937 0 0
lwrist -6.52346 0 0
lhand -14.0689 25.0621 0.0234257
lfingers 7.12502 0 0
lthumb 12.0621 54.6832 0.0202466
rclavicle -2.91965e-14 8.74637e-16 -7.63622e-31
rhumerus -38.3737 -20.6078 -72.1537
rradius 27.0816 0 0
rwrist 10.7516 0 0
rhand -17.1353 12.532 -0.00108219
rfingers 7.12502 0 0
rthumb 9.10482 -17.2514 -0.00103301
208
root 0.30961 17.1482 11.2653 2.03042 18.1914 -0.219705
lfemur -4.72993 -5.6787 -19.6201
ltibia 36.9826 0 0
lfoot 9.16556 -5.82402 -1.56394
ltoes -6.2946 0 0
rfemur -16.5689 4.89183 24.5103
rtibia 25.5518 0 0
rfoot -4.62131 -3.88546 0.167855
rtoes 0.977923 0 0
lowerback 6.66612 -0.816741 -1.23065
upperback -0.000975294 -1.07928 3.12057
thorax -3.44262 -0.491853 4.08765
lowerneck -16.0743 -3.60357 -9.5145
upperneck 23.7687 -3.34534 3.64679
head 10.5323 -1.9445 2.44647
lclavicle -7.60997e-14 7.79236e-15 -3.19454e-30
lhumerus -30.8568 9.44337 83.9982
lradius 34.8344 0 0
lwrist -6.76425 0 0
lhand -15.7077 26.0593 0.0176479
lfingers 7.12502 0 0
lthumb 10.4811 55.7568 0.0129463
rclavicle -7.60997e-14 7.79236e-15 -3.19454e-30
rhumerus -38.3534 -21.3723 -71.8577
rradius 26.9512 0 0
rwrist 11.0968 0 0
rhand -17.3288 12.8114 -0.00180817
rfingers 7.12502 0 0
rthumb 8.91801 -16.9798 -0.00169587
209
root 0.36436 17.1676 11.4635 2.00613 18.1538 -0.033228
lfemur -5.87879 -6.11995 -19.4821
ltibia 38.5132 0 0
lfoot 11.8746 -5.50906 -1.87789
ltoes -2.69212 0 0
rfemur -15.576 4.99825 24.5168
rtibia 25.7095 0 0
rfoot -5.03237 -4.35406 0.105627
rtoes -0.338034 0 0
lowerback 6.74398 -0.731434 -1.22547
upperback 0.035583 -0.969045 3.01746
thorax -3.44724 -0.437437 3.98007
lowerneck -16.1761 -3.68439 -9.46983
upperneck 23.7094 -3.46309 3.65448
head 10.5389 -1.99186 2.42332
lclavicle 9.61618e-15 -2.54445e-15 6.70568e-31
lhumerus -30.9783 10.0795 83.7937
lradius 34.4413 0 0
lwrist -7.25378 0 0
lhand -16.3436 27.2389 -0.00366618
lfingers 7.12502 0 0
lthumb 9.86742 56.9623 -0.00824983
rclavicle 9.61618e-15 -2.54445e-15 6.70568e-31
rhumerus -38.2744 -21.4927 -71.8176
rradius 27.0591 0 0
rwrist 11.1479 0 0
rhand -17.1888 12.5722 -0.000760869
rfingers 7.12502 0 0
rthumb 9.05314 -17.2133 -0.000703143
210
root 0.417689 17.1852 11.6617 1.99945 18.1815 0.171329
lfemur -7.17765 -6.14375 -19.3821
ltibia 40.1172 0 0
lfoot 13.9678 -5.84585 -2.12337
ltoes -1.51225 0 0
rfemur -14.5873 5.28052 24.4433
rtibia 25.8336 0 0
rfoot -5.6577 -4.72988 0.0592053
rtoes 1.74556 0 0
lowerback 6.71378 -0.736863 -1.39068
upperback 0.0822822 -0.988611 3.00337
thorax -3.37043 -0.447185 4.06489
lowerneck -16.1596 -3.65014 -9.53851
upperneck 23.6536 -3.44112 3.80565
head 10.5151 -1.96904 2.49053
lclavicle -5.27425e-14 -4.05521e-15 -8.9339e-31
lhumerus -31.3289 10.7169 83.5367
lradius 34.3434 0 0
lwrist -7.66862 0 0
lhand -16.5289 28.6535 -0.0309285
lfingers 7.12502 0 0
lthumb 9.6884 58.3798 -0.0355314
rclavicle -5.27425e-14 -4.05521e-15 -8.9339e-31
rhumerus -38.0235 -21.2527 -71.9194
rradius 27.2146 0 0
rwrist 11.0481 0 0
rhand -16.7655 12.1957 9.13025e-05
rfingers 7.12502 0 0
rthumb 9.46162 -17.5719 9.67517e-05
